<svg width="160" height="23" viewBox="0 0 160 23" fill="none" xmlns="http://www.w3.org/2000/svg">
<path d="M104.949 3.2384V19.7703H101.554V3.2384H104.949ZM110.035 3.2384V5.90667H96.5459V3.2384H110.035Z" fill="#2196F3"/>
<path d="M95.8759 11.1183V11.9018C95.8759 13.1583 95.7056 14.2862 95.365 15.2854C95.0244 16.2846 94.5437 17.1361 93.923 17.8401C93.3023 18.5365 92.5605 19.0702 91.6975 19.4411C90.8422 19.812 89.8922 19.9974 88.8476 19.9974C87.8106 19.9974 86.8606 19.812 85.9977 19.4411C85.1423 19.0702 84.4005 18.5365 83.7722 17.8401C83.1439 17.1361 82.6557 16.2846 82.3075 15.2854C81.9669 14.2862 81.7966 13.1583 81.7966 11.9018V11.1183C81.7966 9.85419 81.9669 8.72633 82.3075 7.73472C82.6481 6.73554 83.1288 5.88396 83.7495 5.18C84.3778 4.47603 85.1196 3.93859 85.975 3.56768C86.8379 3.19678 87.7879 3.01132 88.8249 3.01132C89.8695 3.01132 90.8195 3.19678 91.6748 3.56768C92.5378 3.93859 93.2796 4.47603 93.9003 5.18C94.5286 5.88396 95.013 6.73554 95.3536 7.73472C95.7018 8.72633 95.8759 9.85419 95.8759 11.1183ZM92.4356 11.9018V11.0956C92.4356 10.2175 92.3561 9.44544 92.1971 8.77932C92.0382 8.1132 91.8035 7.55305 91.4932 7.09888C91.1828 6.6447 90.8043 6.30407 90.3577 6.07699C89.9111 5.84233 89.4002 5.725 88.8249 5.725C88.2496 5.725 87.7387 5.84233 87.2921 6.07699C86.853 6.30407 86.4783 6.6447 86.168 7.09888C85.8652 7.55305 85.6343 8.1132 85.4754 8.77932C85.3164 9.44544 85.2369 10.2175 85.2369 11.0956V11.9018C85.2369 12.7723 85.3164 13.5444 85.4754 14.2181C85.6343 14.8842 85.869 15.4481 86.1793 15.9099C86.4897 16.364 86.8682 16.7085 87.3148 16.9431C87.7614 17.1778 88.2723 17.2951 88.8476 17.2951C89.4229 17.2951 89.9338 17.1778 90.3804 16.9431C90.827 16.7085 91.2017 16.364 91.5045 15.9099C91.8073 15.4481 92.0382 14.8842 92.1971 14.2181C92.3561 13.5444 92.4356 12.7723 92.4356 11.9018Z" fill="#2196F3"/>
<path d="M81.0927 17.1134V19.7703H72.7699V17.1134H81.0927ZM73.8713 3.2384V19.7703H70.465V3.2384H73.8713Z" fill="#2196F3"/>
<path d="M67.7173 11.1297V17.6812C67.4599 17.9915 67.0625 18.3283 66.5251 18.6917C65.9876 19.0475 65.295 19.354 64.4472 19.6114C63.5994 19.8688 62.5738 19.9974 61.3702 19.9974C60.3029 19.9974 59.3302 19.8233 58.4521 19.4751C57.5741 19.1194 56.8171 18.6009 56.1813 17.9196C55.553 17.2383 55.0686 16.4057 54.7279 15.4216C54.3873 14.43 54.217 13.2984 54.217 12.0267V10.9934C54.217 9.72176 54.3797 8.59011 54.7052 7.5985C55.0383 6.60689 55.5114 5.77045 56.1245 5.08919C56.7376 4.40793 57.4681 3.88942 58.3159 3.53365C59.1637 3.17788 60.1061 3 61.1431 3C62.5813 3 63.7622 3.23466 64.6857 3.70396C65.6092 4.16571 66.3131 4.80912 66.7976 5.6342C67.2896 6.45171 67.5924 7.39034 67.7059 8.45007H64.4018C64.3185 7.88993 64.1596 7.40169 63.9249 6.98537C63.6903 6.56904 63.3534 6.24355 62.9144 6.00889C62.4829 5.77424 61.9228 5.65691 61.234 5.65691C60.6662 5.65691 60.1591 5.77424 59.7125 6.00889C59.2734 6.23598 58.9025 6.57283 58.5997 7.01943C58.297 7.46603 58.0661 8.01861 57.9071 8.67716C57.7482 9.33571 57.6687 10.1002 57.6687 10.9707V12.0267C57.6687 12.8896 57.752 13.6542 57.9185 14.3203C58.085 14.9788 58.331 15.5352 58.6565 15.9894C58.9896 16.436 59.3983 16.7728 59.8828 16.9999C60.3672 17.227 60.9312 17.3405 61.5746 17.3405C62.112 17.3405 62.5586 17.2951 62.9144 17.2043C63.2777 17.1134 63.5692 17.0037 63.7887 16.875C64.0158 16.7387 64.1899 16.6101 64.311 16.4889V13.5595H61.1999V11.1297H67.7173Z" fill="#2196F3"/>
<path d="M42.8286 3.2384L46.2803 10.7777L49.7321 3.2384H53.4449L48.0062 13.7525V19.7703H44.5545V13.7525L39.1044 3.2384H42.8286Z" fill="#2196F3"/>
<path d="M41.6476 17.1134V19.7703H33.3249V17.1134H41.6476ZM34.4263 3.2384V19.7703H31.02V3.2384H34.4263Z" fill="#2196F3"/>
<path d="M28.5676 11.1183V11.9018C28.5676 13.1583 28.3972 14.2862 28.0566 15.2854C27.716 16.2846 27.2353 17.1361 26.6146 17.8401C25.9939 18.5365 25.2521 19.0702 24.3892 19.4411C23.5338 19.812 22.5838 19.9974 21.5392 19.9974C20.5022 19.9974 19.5522 19.812 18.6893 19.4411C17.8339 19.0702 17.0921 18.5365 16.4638 17.8401C15.8356 17.1361 15.3473 16.2846 14.9991 15.2854C14.6585 14.2862 14.4882 13.1583 14.4882 11.9018V11.1183C14.4882 9.85419 14.6585 8.72633 14.9991 7.73472C15.3398 6.73554 15.8204 5.88396 16.4411 5.18C17.0694 4.47603 17.8112 3.93859 18.6666 3.56768C19.5295 3.19678 20.4795 3.01132 21.5165 3.01132C22.5611 3.01132 23.5111 3.19678 24.3665 3.56768C25.2294 3.93859 25.9712 4.47603 26.5919 5.18C27.2202 5.88396 27.7046 6.73554 28.0453 7.73472C28.3935 8.72633 28.5676 9.85419 28.5676 11.1183ZM25.1272 11.9018V11.0956C25.1272 10.2175 25.0477 9.44544 24.8888 8.77932C24.7298 8.1132 24.4951 7.55305 24.1848 7.09888C23.8744 6.6447 23.496 6.30407 23.0494 6.07699C22.6028 5.84233 22.0918 5.725 21.5165 5.725C20.9412 5.725 20.4303 5.84233 19.9837 6.07699C19.5447 6.30407 19.17 6.6447 18.8596 7.09888C18.5568 7.55305 18.326 8.1132 18.167 8.77932C18.008 9.44544 17.9286 10.2175 17.9286 11.0956V11.9018C17.9286 12.7723 18.008 13.5444 18.167 14.2181C18.326 14.8842 18.5606 15.4481 18.871 15.9099C19.1813 16.364 19.5598 16.7085 20.0064 16.9431C20.453 17.1778 20.9639 17.2951 21.5392 17.2951C22.1145 17.2951 22.6255 17.1778 23.0721 16.9431C23.5187 16.7085 23.8934 16.364 24.1961 15.9099C24.4989 15.4481 24.7298 14.8842 24.8888 14.2181C25.0477 13.5444 25.1272 12.7723 25.1272 11.9018Z" fill="#2196F3"/>
<path d="M6.4379 13.8774H2.22545V11.2205H6.4379C7.08888 11.2205 7.61875 11.1145 8.02751 10.9026C8.43626 10.6831 8.73526 10.3803 8.9245 9.99423C9.11374 9.60818 9.20836 9.17293 9.20836 8.68848C9.20836 8.19646 9.11374 7.7385 8.9245 7.3146C8.73526 6.89071 8.43626 6.55008 8.02751 6.29271C7.61875 6.03535 7.08888 5.90667 6.4379 5.90667H3.4063V19.7703H0V3.2384H6.4379C7.73229 3.2384 8.84123 3.47306 9.76476 3.94237C10.6958 4.40411 11.4074 5.04374 11.8994 5.86125C12.3914 6.67876 12.6374 7.6136 12.6374 8.66577C12.6374 9.73308 12.3914 10.6566 11.8994 11.4362C11.4074 12.2159 10.6958 12.8177 9.76476 13.2416C8.84123 13.6655 7.73229 13.8774 6.4379 13.8774Z" fill="#2196F3"/>
<path fill-rule="evenodd" clip-rule="evenodd" d="M143.486 23H157.314C158.798 23 160 21.8813 160 20.5012V2.49876C160 1.11873 158.798 -4.3441e-08 157.314 0L134 6.829e-07L143.486 23Z" fill="#D9D9D9"/>
<path fill-rule="evenodd" clip-rule="evenodd" d="M119 20.5012C119 21.8813 120.181 23 121.637 23H144L134.869 0L121.637 3.93506e-07C120.181 4.36822e-07 119 1.11874 119 2.49877V20.5012Z" fill="#2196F3"/>
<path d="M129.718 7.88118L127.105 17H125L128.57 6H129.909L129.718 7.88118ZM131.889 17L129.269 7.88118L129.058 6H130.411L134 17H131.889ZM131.77 12.9052V14.6806H126.696V12.9052H131.77Z" fill="white"/>
<path d="M150.348 5.05956C150.269 5.3425 150.216 5.61054 150.163 5.8488C149.912 7.23368 149.688 9.37801 149.688 11.2245C149.688 13.5773 150.071 15.2451 150.507 16.7491L148.988 17.2554C148.592 15.9152 148.209 13.7113 148.209 11.5223C148.209 9.57159 148.447 7.38259 148.592 5.90836C148.618 5.61054 148.645 5.26804 148.631 5L150.348 5.05956ZM147.984 6.69759C150.493 6.69759 152.487 6.56357 154.508 6.0126L154.521 7.72509C152.712 8.09737 149.939 8.32073 147.945 8.32073C147.245 8.32073 146.215 8.24628 145.594 8.2165L145.555 6.50401C146.03 6.57847 147.179 6.69759 147.984 6.69759ZM153.689 8.8866C153.583 9.15464 153.385 9.83963 153.293 10.1523C152.54 12.8328 151.18 14.8431 149.926 15.8855C149.067 16.6002 147.918 17.2554 146.77 17.2554C145.806 17.2554 145 16.6002 145 15.0813C145 12.9817 146.664 10.7927 148.764 9.92898C149.635 9.57159 150.718 9.34822 151.708 9.34822C154.178 9.34822 156 10.9565 156 13.2795C156 15.394 154.891 17.4341 151.655 18L150.771 16.4215C153.319 16.1088 154.363 14.6644 154.363 13.1901C154.363 11.9244 153.399 10.8522 151.616 10.8522C150.414 10.8522 149.463 11.2394 148.816 11.567C147.496 12.2669 146.558 13.6964 146.558 14.6942C146.558 15.1856 146.73 15.4387 147.166 15.4387C147.786 15.4387 148.671 14.9473 149.477 14.0985C150.441 13.1008 151.339 11.7755 151.867 9.7205C151.959 9.40779 152.052 8.76747 152.065 8.43986L153.689 8.8866Z" fill="black"/>
</svg>
